<?xml version="1.0" encoding="UTF-8"?>
<svg version="1.1" viewBox="0 0 2048 1394" width="1280" height="1280" xmlns="http://www.w3.org/2000/svg">
<path transform="translate(0)" d="m0 0h2048v1394h-2048z" fill="#FCFCFC"/>
<path transform="translate(1008,354)" d="m0 0h28l17 3 14 4 21 10 17 11 19 19 10 14 9 17 7 19 4 17 2-4 5-1 1 4v-8l6-10 3-4h2l2-4 12-9 12-5h10l-9 6-6 9h-2l1 5-3-1v-2h-2l-2 5-7 9-1 3 9-2h5v13l2 13-1 7-5 6v11l6 6h1l-2-5-3-7 3-5 6-4 3-4 4 2h11l13-2 2 3v5l3 4-9 8h-14l-7 1-1-5v-13l-3 3 1 13-5 2 5 2-1 5-1 2h4l1-6 7-3h10v5h2l4-5 8-7 6 1 3 7v8l-1 3h3l1-11-3-10-3-4 2-19h2l6 16 1 1v-8l-1-7 10-5 7-9v-3l-6-11-8-10-6-4-2-4 5 2 12 12 7 13-3-10-8-11-9-8-16-8-14-3h-13l-16 4-13 7-8 8-6 8-3 7-2-1-4-14-6-18v-5l5-5 9-3 5-5h3l-4 5-1 4-8 2-4 4 1 6 4 5 4 4v7l5-3v-3l2-10-7-3 1 4-5 1-2-4 1-4 2-1h6l9 6-1 4-1 3 10-6 12-6 7-5 7-8 8-7 8-3h9l1 5 6 5-1-5 5 1 2 4-12 6h-9l1-2h2l-3-4-9 1 5-5 6 1 6 5 1-1-5-6-7-1-6 3-4 5-8 7-3 3 5-3 12-1 2 1h16l6-1 1 5 11 7 12 13 12 9-1 8 2 3 2-7 5 1 10 6 2 4-5-1-8-4v2l-6 6v7l4 8-2 5-3 7v5l6 5 6 2 1-2-7-2-4-3v-3l4 1 5 3 8 3-5 5-11 6h-3v-6h-2l-1 8-10 8-10 9-4 4-9 4-2 4-2 2h3l3-5h5l-3 5-2 3 3-1 6-7 2 1-4 8h7l3-3-4-4 10-1 3-9-7 2-4 2h-4l2-4 9-8 9-5h2l1 10-4 10-6 8-8 7-9 1-7-3-12-6-9-1h-4v2l7-1 13 5 8 4 8 1 10-4 12-11 5-5 4-3h-3v-5h5l3-6-8-1v-3l9-1 1-8 7-8 1-4v-11l-3-4 4-8v-8l-4-10-3-2v-7l-9-4 1-2h7l-4-7h-2v-7l-9-10-8-8-2-1 1-2 6 4 10 9 9 9 8 11 6 14 3 10 1 7v24l-3 14-5 13-8 15-7 9-6 7-14 11-16 9-15 5-20 3-17-1-18-4-16-7-16-11-8-6-5 5-10 13-9 10-11 11-14 10-13 8-20 8-18 4-16 2h-19l-24-5-13-4-17-8-18-12-11-9-9-9-13-18-5-6-6 3-9 7-13 8-15 6-11 3-19 2-21-3-15-5-12-6-10-7-10-9-7-7-7-10-8-15-5-15-2-11v-19l3-13h2l3-9h2l3-9 8-14 8-11 8-8 15-9 14-7 14-4 15-2h8l18 3 16 6 11 6 11 7 7 5 2 5-4 6-5 16v3l4 1-1 8-2 12v5l5-20 8-21 11-20 7-9 9-10 8-8 11-8 14-8 10-5 18-6z" fill="#99989D"/>
<path transform="translate(1330,654)" d="m0 0h53l44 1 16 4 12 5 10 7 8 9 10 17 3 10h2l-1-4 3 3 5 24 1 10v13l-3 21-5 15-7 13-11 12-10 7-13 6 18 6 11 7 6 7 9 15 8 13 4 13 2 12 1 18-2 20-4 16-8 17-8 10-7 7-16 10-14 5-14 3-9 1h-191l-2-1-1-13v-333l1-4 3-1z" fill="#9F2033"/>
<path transform="translate(728,654)" d="m0 0h32l21 1 1 13h2l1 2v7h2l2 11h2v-2l3 1 13 42 15 43 6 17 3 13 5 13 12 36 11 31 6 16-1 4 1 3 3 3 9 26 14 38v2h-2l1 1h2l5 13-1 3-5-10 5 14 2 6 4 1 1 5h-113l-3-8-10-33-9-30-3-11-15 1-86 1-8 25-15 49-3 6h-115l-2-1 1-7 26-65 20-52 21-55 18-49 16-43 18-50 9-24 6-6z" fill="#9F2032"/>
<path transform="translate(1014,654)" d="m0 0h76l85 1 1 1v91h-87l-1 40v220h-107l-2-6v-252l1-2h-85l-3-5v-85l4-2z" fill="#9F2033"/>
<path transform="translate(1017,400)" d="m0 0h9l17 3 7 2 2-3 7 2 10 7 3 6-7 4-1 5 4 5v6h-1l-1 5-2 1-2 8-8 14 3 9 10 14v3l-3-1-10-16-3-5-5 2-6 2-1 3-3 2-1 4h-2l-2 5v8l-3 4 1 6 5 8 5 3v2l4 2h15l1-4-4-4 1-5 4-8 1-7 2-1 2 5 5 1 4 7 1 2 10 2-1 6-3 3-6 2-2 3 1 11-3 6v6l1 2v6l-7 6-14 6-12 3-7 1h-15l-21-5 1-7h17l-1-5-6-9-3-3-1-5v-8l-1-3-6 1-4-4h-8l-7 4h-15l-10-6-4-7-4-4v-8l4-1 2 2h13l7-1-3-7-7-6-5-7v-6l-4 2h-4v-2l-2-1 1-2-3-1-3-6-2-5 5-12 6-10 12-15 13-10 16-8 13-3z" fill="#D98685"/>
<path transform="translate(1064,443)" d="m0 0 5 2 7 9 10 8 7 1 5-1 7 1 4 1 2 7 1 8v11l-3 17-5 14-8 15-3 4h-2l-2 4-6 7-5 2-1 3-14 8h-2v2l-13 5-16 3h-17l-12-2-14-5-11-6-12-9-12-12-10-16-5-12-3-11-1-8v-18l3-14 4 4 2 5 2 1 1 5 8-2 2 7 7 9 3 1 3 5v4l-10 2h-10l-2-2h-3v8l6 7 2 4 9 5h15l7-4h8l4 4 6-1 2 4v10l3 5 4 5 4 6-1 5h-12l-5-1-1 7 8 1 13 3h15l16-3 15-6 8-6v-6l-1-2v-6l3-6-1-11 4-5 6-2 3-7h-7l-4-2-3-6-2-3-4-1-3-4-2 9-4 8v5l4 2-1 4-1 1h-15l-4-3v-2l-5-2-6-9-1-6 3-4v-8l3-5h2l1-5 6-5 7-4 3 1 9 15 3 4v2l3-1-7-9-6-10-1-5 9-16z" fill="#9F2033"/>
<path transform="translate(830,426)" d="m0 0h12l13 5 11 7 7 7 7 10 3 6-1 46-6 10-9 10-10 7-8 4-12 3h-19l-12-4-11-6-11-10-3-5v-2l-3-1-5-13-2-9v-14l1 3 8 1 6 2 10 2 2 10 1 4-7 8-1 3v10l4 1-2-3v-8l6-8h3v6h-3v2h5l5 10 4 1-5-7-1-10 3-15 4-1 16 4-1 6-4 10-2 12 5 1-1-3v-8l5-11 5-2 4 9 5 13 5 2-6-10-5-19v-7l3-1v-2h-3v-2l7-3 4 1-1 2 6-5 2-6 1-10 5-4 4-2 1-2-10-1-4-4-4-8v-2l-2-1-8-6-11-2z" fill="#9F2738"/>
<path transform="translate(1017,400)" d="m0 0h9l17 3 7 2 2-3 7 2 10 7 3 6-7 4-1 5 4 5v6h-1l-1 5-11 4-16 3 1 5-1 4h-2v2h-13l-1 2-14-1-6-2v-7h-20l-3 2h-13l-6 5-3-10-1-14 3-10 6-7 13-9 11-5 13-3z" fill="#FCFCFC"/>
<path transform="translate(1212,425)" d="m0 0 15 1 12 4 8 4 3 5 8 6 9 13 4 8-1 3h-2l-6 8-8 4h-2l2 7v9l-4-4-4-12v-2h-2v13l-1 6 4 6 2 8-1 9-1 2h-3v-11l-2-6-6-1-10 9-2 3-3-1 1-5-13 2-4 1-1 6h-4l2-7-6-2v-1l5-1-1-13 2-3h2l1 18 7-2h14l8-7-3-4-1-7-13 2h-11l-4-2-5 6-5 3-1 3 3 7 2 6-5-2-2-3-6-2 4-1v-10l6-8-1-8-1-10v-12l-13 1 1-4 9-13h2v2h2v-4h2l2-5 6-7 4-2-3-2z" fill="#DA8685"/>
<path transform="translate(1062,491)" d="m0 0 3 3v2l5 1 4 7 1 2 10 2-1 6-3 3-6 2-2 3 1 11-3 6v6l1 2v6l-7 6-14 6-12 3-7 1h-15l-21-5 1-7h17l-1-5-6-9-3-3-1-5v-8l-1-3-6 1-4-4h-8l-7 4h-15l-10-6-4-7-4-4v-8l4-1 2 2h13l7-1 1-3v3l4 1 17 8 20 7h18l4-1 5 1v2l4 2h15l1-4-4-4 1-5 4-8 1-7z" fill="#999A9E"/>
<path transform="translate(823,392)" d="m0 0h12l4 2 3 5 5 6 6 12 4 4h14l2-2v-8l-5-1 4 5-1 5-5-1-6-4-1-4h-5l-4-5-7-10-3-3 5 1 11 6 9 1 9 3 5 5v6l9 2 4 4v6l-8 8-3 8-3-1-7-8-9-6-13-7-12-11-5-5-5-4-6-2h-8l-1 4-5 6h-1l-1-5-3-1v2l-2 1-1 3 5 1 7 3 7 1-3-4 5-3 7 1-5-3-5 2-8 4-1-2 5-5 4-3h6l6 4 12 12v1l-11-1h-3l-10 3-4-1-10-3-1 4-2 3 6-2 4 1-15 5-5 3-7 8-7 7-8 5h-2l2 4v7l-1 2-4-2 2-1-1-6-14 7-3 1v3l5 1 9 4 2 1-6-6-7-1 5-4 5 1 6 6-1 12-2 6 4 11v5l-7 6-6 1v-2l6-3 3-3 1-3-5 3-7 3h-5l5 5 13 7 2-11 2 4 2 10 6 4 16 15 1 2-5-2-12-10-10-5v15l-5-2-1-5-4 1-5-5 2-2h7l1-3-10-2-2-4v-3l-6-7-3-9 1-7 3-3-1-4-3-3v-10l4-10 4-4-2-4 3-3 8-1-1-2-7-1 1-4 2-4h2v-6l7-8 13-13 12-6 1 2 7 1 2-4 8-7 5-2h8l7 2h2z" fill="#FCFBFB"/>
<path transform="translate(1269,467)" d="m0 0 2 2 2 8v13l-2 11-4 10-8 11-7 7-14 8-12 4-14 1-11-2-13-5-11-8-8-8-4-6 1-4h20l5 3 3 3h1l-2-5-3-7 3-5 6-4 3-4 4 2h11l13-2 2 3v5l3 4-9 8h-14l-7 1-1-5v-13l-3 3 1 13-5 2 5 2-1 5-1 2h4l1-6 7-3h10v5h2l4-5 8-7 6 1 3 7v8l-1 3h3l1-11-3-10-3-4 2-19h2l6 16 1 1v-8l-1-7 10-5z" fill="#9F2739"/>
<path transform="translate(1381,867)" d="m0 0h9l8 5 3 5v19l-3 14-5 8-4 3-4 1h-54l1-45 1-5h53l7 3 4 2-5-6-5-2-6-1z" fill="#FDFDFD"/>
<path transform="translate(811,430)" d="m0 0 5 1 4 8 1 3v8l-1 2-2 1h12l9 3v11l5 4 5-1 2-4 2-13 2-4 3-1 1 1 10 2-2 4-6 3-1 1-2 14-6 7-5 1 3-3-10 2v2h3v2l-2 1v7l6 21 4 6v2l-5-1-4-9-5-12v-2l-5 2-2 6-2 5v11l-5-1v-7l4-13 3-8-16-3h-3l-3 15 1 10 5 7-3 1-5-5-3-7-1-15-1-10 3-3 1-3-5 1 3-6 2-2h14l-1-6-2 1h-8l2-7-2 2-3 6-3 1-5-2h-7l-13-6 1-5 6-9 6-7 11-7z" fill="#99979B"/>
<path transform="translate(1374,1112)" d="m0 0h1l1 18 5 10 4 3h19l3-1-2 5-6 9-5 3-3 2h-7l-8-5-3-5-3-8-2-12-7 4-3 1-2 4-11 8-13 6-15 5-15 3-24 3-20 2-19-1-22-2-14-5-4-4-4-16 5 2 8 4 11 3 10 1h55l18-1 27-5 18-6 14-7 10-10z" fill="#989A9E"/>
<path transform="translate(1110,1115)" d="m0 0 5 2 7 2 6 5-1 4-5 4-2 3v5l2 1h12l3-1-2 4-3 3-7 2h-4l-4-4-5-1-7 3-4 3-21 7-8 2-10 2-34 1-16-1-8-2-16-3-32-7-1 2 1-5 5-12 4-1 9 4 10 3 15 3 12 2 13 1h38l14-1 17-3 12-3 2-1v-6l-3-3-7-2 6-7z" fill="#98999D"/>
<path transform="translate(1333,740)" d="m0 0h40l7 3 7 5 3 5v20l-4 9-4 3-7 1h-42l-1-1v-32z" fill="#FDFDFD"/>
<path transform="translate(580,1116)" d="m0 0 2 2 3 7 8 5 14 6 13 4 15 3 12 2h32l28-3 19-5 15-6 9-5 2 1-5 5-5 6-14 8-19 7-18 5-25 3h-19l-3-1-21-2-18-5-25-7-1 9-2 3-1-19v-18l3-2z" fill="#98999D"/>
<path transform="translate(717,746)" d="m0 0 2 1 1 9 6 23 15 52v5h-56l1-3v2l4-2 10-32 13-43z" fill="#FDFDFD"/>
<path transform="translate(1114,416)" d="m0 0 3 1 5 5 7 6 3 7v5l7 8 2 4-1 8 4 2 2 12h-4l-5-6-3 1v3l3-1 10 8v6l-5 5-2 1 5 2 1 2v7l-5 5-6 4-3-1v2h5l5-3 1 4-1 7-3 3-3 8-9 10-2 2-3 9-4 5-7 3h-4v2h-2l-5-8 1-7 4-3h6l1 3-7 2-1 5 3 4 10-5 4-8-8-1-5-5 5-6h5l-1 4-2 3 5-1-1-9-1-7 3-5 5-6-1-10 3-6v-11l-2-5 1-13-5-7v-8l1-4-7 1-3-5 1-4 2-2 6-2h5l-5-8-6-2-2 1-1 4 4-1h4l-1 4-3 3h-7l-4-5 1-5z" fill="#FBFBFB"/>
<path transform="translate(930,416)" d="m0 0 4 2 5 10-1 7-3 2h-6l-4-4v-3l4 1 4 2v-5l-2-2-6 1-3 3-2 5 10 3 2 2v6l-2 3-7-1v-2l4-1-1-3h-5l1 6 2 4v7l-5 8v16l-1 5 1 9 2 6v11l6 6v8l-2 12 7 1-3-5v-3l5 1 3 3-1 5-4 2-6 1 1 5 4 5 10 2 1-6-1-3-7-2 1-2 7 1 3 3 1 5-5 8h-2v-2h-7l-6-4-4-8-2-5-9-10-5-10-2-3-1-11 10 5 2-4-2-1v3l-4-1-9-7-1-6 2-4 5-2-6-4-1-2v-6l4-2-3-3 1-9 1-4 3-1v-7l4-7 5-5 1-9 7-9 6-4z" fill="#FCFCFC"/>
<path transform="translate(1271,408)" d="m0 0 6 3 12 11 8 8 8 11 6 14 3 10 1 7v24l-3 14-5 13-8 15-7 9-6 7-14 11-16 9-15 5-20 3-17-1-18-4-14-6 2-2 19 7 18 3h11l19-3 19-7 13-8 13-11 9-11 9-16 5-13 2-13-7 21-8 15-8 10-12 12-11 8-14 7-17 5-8-1-7-2-6-3 3-1 8 2h10v-2l8-4 5-6h10l10-4 12-11 5-5 4-3h-3v-5h5l3-6-8-1v-3l9-1 1-8 7-8 1-4v-11l-3-4 4-8v-8l-4-10-3-2v-7l-9-4 1-2h7l-4-7h-2v-7l-9-10-8-8-2-1z" fill="#98959A"/>
<path transform="translate(1188,444)" d="m0 0h2l10 15 6 10 6 2 4 2 22 1 5 5 1 2v11l-1 6 4 6 2 8-1 9-1 2h-3v-11l-2-6-6-1-10 9-2 3-3-1 1-5-13 2-4 1-1 6h-4l2-7-6-2v-1l5-1-1-13 2-3h2l1 18 7-2h14l8-7-3-4-1-7-13 2h-11l-4-2-5 6-5 3-1 3 3 7 2 6-5-2-2-3-6-2 4-1v-10l6-8-1-8-1-10v-12l-13 1 1-4z" fill="#FDFDFD"/>
<path transform="translate(1199,427)" d="m0 0h10l-9 6-6 9h-2l1 5-3-1v-2h-2l-2 5-7 9-1 3 9-2h5v13l2 13-1 7-5 6v11l-8-1-10-1 1-8-3 8-5 1 1-16v-11l-1-12-1-2v-8l6-10 3-4h2l2-4 12-9z" fill="#9F2638"/>
<path transform="translate(822,421)" d="m0 0h16l12 3 16 9 8 7 7 11 2 6-1 4-7-12-9-10-11-7-13-5h-5l5 2 8 5 7 14-3 5-3 16-3 3-6-1-4-4v-11l-8-2h-16l3-2h3v-10l-4-9v-2l-9 1-10 4h-3l-10 8-6 9-5 10-2 9-1 20h-1l-1-7v-15l3-11 5-10 11-13 10-7 11-5z" fill="#D88685"/>
<path transform="translate(967,481)" d="m0 0h5l12 9 8 1 10-8 4-1 4 1 6-1 12 5 3 3v5l-3 4 1 6 5 8 3 3-14 1h-11l-14-5-13-5-14-7-3-11z" fill="#FDFDFD"/>
<path transform="translate(811,430)" d="m0 0 5 1 4 8 1 3v8l-1 2-2 1h12l9 3v4l-4-1h-15l-1 6-11 1 2-6-2 2-3 6-3 1-5-2h-7l-13-6 1-5 6-9 6-7 11-7z" fill="#FDFDFD"/>
<path transform="translate(791,686)" d="m0 0 3 1 13 42 15 43 6 17 3 13 5 13 12 36 11 31 6 16-1 4 1 3 3 3 9 26 14 38v2h-2l-2 2-14-39-12-36-17-48-18-53-10-30-12-34-12-38-3-10h2z" fill="#DB8685"/>
<path transform="translate(900,535)" d="m0 0h2l9 17 12 16 10 11 14 11 14 9 17 8 18 5 21 3h13l21-3 18-5 21-10 14-10 14-12 11-13 7-11 5-8 2 1-8 16-7 9-9 10-12 12-18 12-17 8-15 5-24 4h-23l-21-4-15-5-20-10-14-10-12-11-9-10-7-10-8-15z" fill="#FDFDFD"/>
<path transform="translate(514,1140)" d="m0 0 1 4v13l3 8 5 5 7 4 5 1h18l12-3 10-6-3 10-7 8-14 7-9 2-10-1-12-6-6-5-6-10-1-7 2-11z" fill="#98999D"/>
<path transform="translate(1011,390)" d="m0 0h27l16 4 16 8 11 7 12 11 9 12 5 10 6 16-2 3-8-18-6-10-8-10-7-7-10-7-14-7-15-4-14-2h-15l-17 3-13 5-11 6-10 8-9 9-7 10-6 12-2-1 1-7 6-10 9-11 9-9 13-9 14-7 14-4z" fill="#FDFDFD"/>
<path transform="translate(1236,436)" d="m0 0h8l8 4 7 6 6 9-1 5-5 6-9 4-8 1-7-3-4-6v-2l-4-2-1-4 3-11 3-1 1-4z" fill="#FDFDFD"/>
<path transform="translate(811,398)" d="m0 0h10l9 4 5 4 7 8 10 8 15 8 10 9-1 2-7-4-6-5-16-8-9-2h-16l-17 4-13 7-8 7-8 11-5 10-3 8-7-6-2-2-5 1-2 1 6 2 5 4v2l-5-2-11-4v-3l10-6 4-2h3l1 6v2l2 1v-9l-1-4 11-7 16-16 10-4h-3l2-4 1-3 10 2 4 1 10-3 3-1v2h10l-13-13-4-2h-6l-5 5-4 2h4l8-5 6 2 2 3-8-1-4 2 2 4h-7l-7-3-5-2 1-4h2v-2l4 1 1 3 5-5 1-3z" fill="#9D646F"/>
<path transform="translate(860,1125)" d="m0 0 1 3-2 6v6l2 4 2 8 5 6 10 5h22l7-2 6-2-2 5-8 8-8 4-12 3h-11l-11-7-5-6-4-9v-9l5-16z" fill="#98999D"/>
<path transform="translate(810,458)" d="m0 0h6v1l-6 2-2 6 10-1 1 6-14 1-4 6h4l-1 4-2 2 1 10v15h-4v-2h3v-6l-5 3-3 5v8l1 3-4-1-1-2v-8l3-6 5-5-1-4-1-3v-7l-15-2-9-3-1-7 3-10 3-4v2l9 3 5 2 9 1 4 1 5-9z" fill="#DA8887"/>
<path transform="translate(1226,397)" d="m0 0h9l1 5 6 5-1-5 5 1 2 4-12 6h-9l1-2h2l-3-4-9 1 5-5 6 1 6 5 1-1-5-6-7-1-6 3-4 5-8 7-7 5h-2v2l-18 10-8 8-6 8-3 7-2-1-4-14-6-18v-5l5-5 9-3 5-5h3l-4 5-1 4-8 2-4 4 1 6 4 5 4 4v7l5-3v-3l2-10-7-3 1 4-5 1-2-4 1-4 2-1h6l9 6-1 4-1 3 10-6 12-6 7-5 7-8 8-7z" fill="#989A9E"/>
<path transform="translate(1487,703)" d="m0 0 3 3 5 24 1 10v13l-3 21-5 15-7 13-11 12-10 7-14 7-4-1 1-5 12-5 11-8 5-5 7-9 5-10 5-16 1-6v-30l-3-22-1-6 1 2h2z" fill="#9F3646"/>
<path transform="translate(1311,496)" d="m0 0 1 4-4 16-8 16-7 11-11 12-12 9-10 6-19 7-19 3h-11l-18-3-19-7-14-9-10-9-2-4h4l10 9 13 8 11 5 14 4 8 1h16l14-2 18-6 12-7 11-9 11-11 9-14 7-16 4-13z" fill="#FDFDFD"/>
<path transform="translate(857,448)" d="m0 0 12 3-2 4-6 3-1 1-2 14-6 7-5 1 3-3-10 2v2h3v2l-2 1v7l6 21 4 6v2l-5-1-4-9-5-12-5-10v-2h-5l-1-1v-11l6-2 2-10 4 2 4 5 6 1 3-5 2-13 2-4z" fill="#FDFDFD"/>
<path transform="translate(775,1141)" d="m0 0 4 1 5 5 2 5 12-1 4-4h9l3 2 11 1-1 3h-3v3l-4 3-6-2-6-5-4 1-8 7-5 4-7 2-3 4v-3h-11l-6-6 2-4 6-10 5-5z" fill="#989A9E"/>
<path transform="translate(1340,733)" d="m0 0h20l17 2 8 4 5 6 1 3v23h-1l-1-18-2-5-4-2-6-4-4-1-40-1v46h-6v-48l1-3 2-1z" fill="#9E3142"/>
<path transform="translate(1202,490)" d="m0 0 4 2h11l13-2 2 3v5l3 4-9 8h-14l-7 1-1-5v-13l-3 3 1 13-6 2-4-2-2-7 4-5 5-3z" fill="#A02537"/>
<path transform="translate(743,522)" d="m0 0 5 5 10 14 6 7 8 7 14 9 13 6 13 4 6 1h23l19-5 19-9 14-11 3-3 3 1-6 7-13 10-16 8-17 5-14 2h-9l-14-2-16-5-14-7-13-10-11-11-9-13-4-8z" fill="#FDFDFD"/>
<path transform="translate(822,421)" d="m0 0h16l12 3 16 9 8 7 7 11 2 6-1 4-7-12-9-10-11-7-13-5-6-1h-14l-13 3-12 5-12 9-4 5-6 10-3 9-1 5-1 20h-1l-1-7v-15l3-11 5-10 11-13 10-7 11-5z" fill="#FDFDFD"/>
<path transform="translate(714,744)" d="m0 0 5 1-2 5-8 24-15 50-4 10-4 1-1-4 9-31 15-49 2-4z" fill="#9E2C3D"/>
<path transform="translate(824,389)" d="m0 0h10l18 3 14 5v2l-10-3-9-2h-6l5 5 8 11 5 1 2 4 7 4h3l-1-5-3-4 4-1 3 2v8l-3 3h-14l-7-8-6-12-6-7-3-2h-9l2 4-4-2-6-1h-8l-8 4-7 8-7-1h-4l-10 6-4 2v-3l13-8 14-7 14-4z" fill="#9E6B75"/>
<path transform="translate(1291,533)" d="m0 0h2l-2 7-15 15-11 8-14 7-17 5-8-1-7-2-6-3 3-1 8 2h10v-2l8-4 5-6h10l10-4 12-11 5-5 6-4z" fill="#989196"/>
<path transform="translate(1447,1049)" d="m0 0h2l-2 5-5 5-19 10-25 10-9 4-2-1 9-10 10-6 29-12z" fill="#ADA8AC"/>
<path transform="translate(791,686)" d="m0 0 3 1 13 42 15 43 1 6h-4l-11-30-12-37-7-22 2-1z" fill="#D38989"/>
<path transform="translate(803,423)" d="m0 0h6l-1 2-16 8-8 7-8 11-5 10-3 8-7-6-2-2-5 1-2 1 6 2 5 4v2l-5-2-11-4v-3l10-6 4-2h3l1 6v2l2 1v-9l-1-4 11-7 16-16z" fill="#997E85"/>
<path transform="translate(1492,866)" d="m0 0 5 5 3 7 1 13 2 18-1 19-3 17-8 21-7 10-10 10-13 8-16 6-12 2 1-2 17-5 16-8 10-8 8-9 8-16 4-12 3-19v-14l-3-22-5-19z" fill="#DB8685"/>
<path transform="translate(662,920)" d="m0 0h93l11 1 2 1-1 6-2-4-2-1-55-1h-35l-10 1-3 5-17 55-6 18-1 2h-2l3-11 12-38 9-29z" fill="#DB8685"/>
<path transform="translate(1226,397)" d="m0 0h9l1 5 6 5-1-5 5 1 2 4-12 6h-9l1-2h2l-3-4-9 1 5-5 6 1 6 5 1-1-5-6-7-1-6 3-4 5-8 7-7 5h-2v2l-18 10-5 1v-2l10-6 12-6 7-5 7-8 8-7z" fill="#9B5C68"/>
<path transform="translate(913,1115)" d="m0 0 1 3 5 2 10 6v3l-4 8-3 8h-1l-2-6-9-5-4-4 2-6z" fill="#98989D"/>
<path transform="translate(805,472)" d="m0 0 5 2 2 1-1 11 3 1-3 2-3 15 1 10 5 7-3 1-5-5-3-7-1-15-1-10 3-3 1-3-5 1 3-6z" fill="#FDFDFD"/>
<path transform="translate(1277,521)" d="m0 0h2l1 10-4 10-6 8-4 4-5 2h-9v-1l9-2 2-4-4-4 10-1 3-9-7 2-4 2h-4l2-4 9-8z" fill="#99848B"/>
<path transform="translate(1487,703)" d="m0 0 3 3 2 9v42l-3 18-4 12-5 10-8 10-10 9-16 8h-2l1 4-3-1 1-5 12-5 11-8 5-5 7-9 5-10 5-16 1-6v-30l-3-22-1-6 1 2h2z" fill="#DB8685"/>
<path transform="translate(1514,1081)" d="m0 0 1 2-3 12-2 28-3 13-5 12-1-3 1-5 1-24 4-20 6-14z" fill="#999398"/>
<path transform="translate(1206,391)" d="m0 0h8l-3 2-8 7-5 8-4 8-5 5-7 1-6-1-4-5 1-5 4-4 2 1v3l-4 3v3l9-2 3-2 1-4h3v4l6-10 6-9-20 7-7 1 4-3 20-7z" fill="#A09BA0"/>
<path transform="translate(863,905)" d="m0 0 4 1 6 16 8 23 10 27v2h-2l-2 2-14-39-10-30z" fill="#D88786"/>
<path transform="translate(820,458)" d="m0 0h15l4 2-1 5-4-2-1 10-1 1-12 1-5-1 4-2-1-6-2 1h-8l3-2h8v-6z" fill="#989499"/>
<path transform="translate(1014,395)" d="m0 0h15l19 3v2l4 2-2 4-16-4-8-1-24 1-12 3-3-1 17-6 9-2z" fill="#D88685"/>
<path transform="translate(1255,409)" d="m0 0h9l9 6 7 9 3 10-1 9h-4l-11-8-5-4-1-4 9 3 9 7-4-12-4-5h-4l-1-5-5-3h-7l-1-2z" fill="#989498"/>
<path transform="translate(949,1164)" d="m0 0 1 2-4 11-7 8-4 2h-12l-3-1-1-4 16-8 7-5 5-2z" fill="#98999D"/>
<path transform="translate(786,409)" d="m0 0h5v3l-5 1-6 3v4l-4 1-5 5-3 8v4l7-6 6-3h4l-2 4-12 10-6 2-2-5 1-9 5-10 7-7z" fill="#999297"/>
<path transform="translate(1070,378)" d="m0 0h2l2 4 6 2 4-6h3l-1 6-2 4 6 2 4-5-1 10 3 1 4-1 1 8 6-2 2-2h3l-1 4-6 5-5-1-9-9-13-9-10-6 1-4z" fill="#FDFDFD"/>
<path transform="translate(1182,1085)" d="m0 0 1 3-1 5-1 14-2 18-2 13-4 11-1-3 1-29 4-21z" fill="#98979B"/>
<path transform="translate(1040,363)" d="m0 0h5l2 3v5l6 1 3-8 4 2-3 10-3 1-13-3-11-1-4 4-8-1 3-2 3-1 1-9 4 1 1 3 5 2 3-5z" fill="#F8F7F8"/>
<path transform="translate(1340,733)" d="m0 0h20l17 2 8 4 5 6 1 3v23h-1l-1-18-2-5 1-2h-2l-5-6-6-3-5-1h-37l-2 1-1 4-1 44 3-1 1 2h-6v-48l1-3 2-1z" fill="#DA8685"/>
<path transform="translate(1292,543)" d="m0 0h2l-2 4-6 7-14 11-16 9-15 5-20 3-17-1-18-4-14-6 2-2 19 7 18 3h11l19-3 19-7 13-8 13-11z" fill="#98959A"/>
<path transform="translate(1486,1075)" d="m0 0 1 2-4 12-2 8-2 18-6 13-2 1 1-18 2-13 2-3 1-7 4-4 4-8z" fill="#998C92"/>
<path transform="translate(837,1094)" d="m0 0h1l-1 36-6 12-2-1v-14l1-14 5-14z" fill="#989498"/>
<path transform="translate(1163,510)" d="m0 0 4 5 11 12 12 8 14 5 14 1 12-2 12-5 11-7 7-7 4-6 1 2-6 8-9 9-14 7-9 3-8 1h-9l-16-4-11-6-8-7-9-9-3-5z" fill="#FDFDFD"/>
<path transform="translate(984,366)" d="m0 0 4 1 4 9-5 3-12 6-2 6-5 4h-2l2-4 2-1 1-3-6 1-6-3 2-4 6-4h2l2 4 5-2 2-5 3 2 5-1z" fill="#F9F8F8"/>
<path transform="translate(879,511)" d="m0 0 1 3-8 11-11 9-10 5-15 4h-17l-15-4-10-6-7-6v-2h-2l-4-6 1-2 9 10 11 7 9 4 7 2h19l14-4 11-6 11-10z" fill="#FDFDFD"/>
<path transform="translate(867,1189)" d="m0 0 3 1 3 5 7 1 2-4 3-3 4 1 4 4-4 6h-30l-1-2 6-5z" fill="#9D9A9E"/>
<path transform="translate(1150,1074)" d="m0 0 1 3-2 8-1 10-1 26-5 11-1-2 1-36 4-10z" fill="#989499"/>
<path transform="translate(1302,1087)" d="m0 0 2 4v2l6 3-1 5-3 4h-2l-1 3-2-1v-2l-6-1-4-4 3-3 1-4z" fill="#989A9E"/>
<path transform="translate(860,484)" d="m0 0 9 1 4 4v2l5 2-1 5-3 1-3-1 1 7-3 1-2-10 1-2-7 1-2-1v-3h-2l1-5h2z" fill="#A1979A"/>
<path transform="translate(812,1090)" d="m0 0 3 1v2l4 1v2h-5l2 5-7 1-2 1v-4l-9 1-3 4h-3l-1 2-5-1 1-2-3-2 5-2 1-3h2l1-5 2 1 1 3 12 1 3-3z" fill="#9F868D"/>
<path transform="translate(957,387)" d="m0 0 4 1 3 1-2 4-11 9-2 3h-2l1 3 3 2-1 5-2 1h-10v-3l9 1-2-4-5-3v-3l4-2 7-8 5-2z" fill="#FDFDFD"/>
<path transform="translate(714,744)" d="m0 0 5 1-1 2-4 1-5 12-20 67-2 8-2-4 9-31 15-49 2-4z" fill="#DB8685"/>
<path transform="translate(1172,530)" d="m0 0 4 2 7 5 11 6 9 7 2 4 5 5 2 3-4-1-9-11h-2l6 10v2h-2l-5-8-4-8-8-5-6-1-8 4-2 2-3-1 5-5 3-2h4l-5-7z" fill="#FDFDFD"/>
<path transform="translate(849,404)" d="m0 0 4 5 6 2 2 4 7 4h3l-1-5-3-4 4-1 3 2v8l-3 3h-14l-7-8-3-9z" fill="#A4A4A7"/>
<path transform="translate(1064,421)" d="m0 0 2 1 3-1 2 2 3 5 2 1v2h2l3 5 1 5-1 1h-6l-4-3-2-8-3-1-3-4z" fill="#D98685"/>
<path transform="translate(803,479)" d="m0 0h2l-1 4-2 2 1 10v15h-4v-2h3v-6l-5 3-3 5v8l1 3-4-1-1-2v-8l3-6 5-5-1-4v-10l2 3v-8z" fill="#A0979B"/>
<path transform="translate(1412,1134)" d="m0 0 5 5 6 3 1 2 7-1 3-3h2l-2 4-7 6h-5l-2 2h-3l-3-4-1-7h-5z" fill="#B4B0B4"/>
<path transform="translate(944,1098)" d="m0 0 4 1 5 5-7 8-5 2-1-4h-6l2-4z" fill="#98979B"/>
<path transform="translate(1202,490)" d="m0 0 4 2-1 14h-1v-13l-3 3 1 13-6 2-4-2-2-7 4-5 5-3z" fill="#9F3344"/>
<path transform="translate(1222,398)" d="m0 0h5v2l-9 4-4 5-8 7-7 5h-2v2l-18 10-5 1v-2l10-6 12-6 7-5 7-8 8-7z" fill="#9C505D"/>
<path transform="translate(802,1147)" d="m0 0h9l3 2 11 1-1 3h-3v3l-4 3-6-2-6-5h-6l2-4z" fill="#9A9196"/>
<path transform="translate(1031,589)" d="m0 0 4 2 2 7h-2l2 5-4 1-6-4-4-5v-2h-2l3 9 4 2h-9l-1-14 7 1 6 7v2h2l-3-10z" fill="#FDFDFD"/>
<path transform="translate(1487,703)" d="m0 0 3 3 2 9v42h-2l-1-24-3-22-1-6 1 2h2z" fill="#D98584"/>
<path transform="translate(997,557)" d="m0 0 17 1 1 10-15-3-4-1z" fill="#DB8685"/>
<path transform="translate(1413,1095)" d="m0 0 2 1v2l6 2-1 4-5 5h-2v2l-7-1-1-5 4-6h2z" fill="#A0979C"/>
<path transform="translate(1277,521)" d="m0 0h2l-1 6-4 6-9 3-4 2h-4l2-4 9-8z" fill="#A2A4A7"/>
<path transform="translate(814,488)" d="m0 0h8l10 2 1 4-1 1 2 2-6 13v11l-5-1v-7l4-13 3-8-16-3z" fill="#FDFDFD"/>
<path transform="translate(1173,484)" d="m0 0 7 1 3 2v6l-4 3-6-1-5-2-1-4z" fill="#C1C0C2"/>
<path transform="translate(821,459)" d="m0 0h11l-1 12-1 1h-9l-1-1z" fill="#F8F8F8"/>
<path transform="translate(1017,362)" d="m0 0 5 1-1 3-3 2-2 3-1-3h-3v7l-3 2-6-1-6-5-1-3h4l6 5 1-1-2-4-3-2 13-1z" fill="#FDFDFD"/>
<path transform="translate(1016,559)" d="m0 0 15 1 1 3h2v4l-3 1h-14l-1-1z" fill="#FDFDFD"/>
<path transform="translate(829,415)" d="m0 0 1 2h5l-4 2 4 2-19 2-7 1-3-2-6 1 2-4 1-3 10 2 4 1 10-3z" fill="#998288"/>
<path transform="translate(758,1063)" d="m0 0 4 1 5 4v2l-5 5-3 1-1 4-3-1v-2l-4-2 2-5h2v-2l2-1z" fill="#989A9E"/>
<path transform="translate(1247,558)" d="m0 0h8v2l9-2-1 3-5 1h-11l-7 7-10 5-5-1-9-2-3-3 11 2h10v-2l8-4z" fill="#9E2A3B"/>
<path transform="translate(756,536)" d="m0 0 7 6 12 11 12 9v1h-5l-11-8-10-9-5-6z" fill="#9D3F4E"/>
<path transform="translate(1492,866)" d="m0 0 5 5 3 7 1 13 2 18v7h-2l-4-29-5-19z" fill="#D78584"/>
<path transform="translate(1329,866)" d="m0 0h7l-3 2-3 3-1 50h2l-1 2-3-1v-52z" fill="#D98685"/>
<path transform="translate(803,423)" d="m0 0h6l-1 2-16 8-8 7-7 9-3-1v-3l8-7 8-9 10-5z" fill="#9C4755"/>
<path transform="translate(1292,543)" d="m0 0h2l-2 4-6 7-14 11-16 9-12 4-4-1 10-4 12-5 11-7 13-11z" fill="#997B83"/>
<path transform="translate(1206,391)" d="m0 0h8l-3 2-8 7-5 8h-2l1-5 6-9-20 7-7 1 4-3 20-7z" fill="#9B606B"/>
<path transform="translate(969,435)" d="m0 0 3 1 3 12 4 1v2l-9 1-5-3 1-9z" fill="#99999D"/>
<path transform="translate(771,1179)" d="m0 0v3l-9 9-4 3-15 2h-5l3-2 24-10z" fill="#989297"/>
<path transform="translate(708,920)" d="m0 0h47l11 1 2 1-1 6-2-4-2-1-55-1z" fill="#DA8786"/>
<path transform="translate(761,497)" d="m0 0h3l-1 4-4 4-5 1v2l8-3 4-2-1 4-7 4-4-1-6-4-1-3 7-2 6-3z" fill="#988F94"/>
<path transform="translate(802,403)" d="m0 0 4 1v5l3 1 10-5 3-1 5 3 1 2-8-1-4 2 2 4h-7l-7-3-5-2 1-4h2z" fill="#99888E"/>
<path transform="translate(1137,527)" d="m0 0h2l-2 6-4 6-6 7-5 10-6 5-8 1 3-1v-2l8-4 4-7 2-6 8-8z" fill="#9D3949"/>
<path transform="translate(833,390)" d="m0 0h8l14 3 11 4v2l-10-3-9-2h-6l5 5 3 4-1 3-5-5-5-6-3-2-2-1z" fill="#9C4755"/>
<path transform="translate(818,474)" d="m0 0 7 1-1 11h-8l-2-1v-9z" fill="#FDFDFD"/>
<path transform="translate(1202,493)" d="m0 0h2l2 21-2 6h-4l2-7-6-2v-1l5-1-1-13z" fill="#FDFDFD"/>
<path transform="translate(1162,518)" d="m0 0 5 5 2 4 1 9-5 2-2-4-5-1 1-3h2l2-4-1-4z" fill="#FDFDFD"/>
<path transform="translate(1062,581)" d="m0 0 5 1 5 10-1 2-5 2-3-3-3-9v-2z" fill="#EBEBEC"/>
<path transform="translate(1046,423)" d="m0 0h2v4l8 4v4l-7 1-4-2 1-5-6-1-4-2 1-1 8-1z" fill="#D68786"/>
<path transform="translate(880,420)" d="m0 0h6l2 2-1 6-4 2-2-4 4-2-7 1-3 2 2 10-5-5-1-6z" fill="#9B636E"/>
<path transform="translate(931,1075)" d="m0 0h1v14l-5 9h-1v-5h-2l-2-4 3-3 1-4h2l2-4z" fill="#9F9A9F"/>
<path transform="translate(917,517)" d="m0 0h3l2 6v14h-3l-3-6v-12z" fill="#989A9E"/>
<path transform="translate(1225,546)" d="m0 0 9 1 12 6 7 3 10-1v2l-8 2-9-2-12-6-6-2h-7v-2z" fill="#FDFDFD"/>
<path transform="translate(1165,491)" d="m0 0 7 4v3l-4 9-5 1 1-16z" fill="#A32839"/>
<path transform="translate(1292,470)" d="m0 0h7l3 5-5 6-5 2-4-1-2-3 8 1-3-6z" fill="#A08990"/>
<path transform="translate(927,425)" d="m0 0 5 1 2 2-1 5-4-1-4-2 3 5 2 3-10-2v-3l3-5z" fill="#98979B"/>
<path transform="translate(1161,419)" d="m0 0h6l9 6v3h-3v-2l-9-3 1 4-5 1-2-4 1-4z" fill="#98979B"/>
<path transform="translate(960,570)" d="m0 0 4 1 3 2-1 4-3 1v-4h-2l1 9-1 3h-3v-2l-3-1 1-5z" fill="#FDFDFD"/>
<path transform="translate(1127,517)" d="m0 0h2l2 9-2 8-2 3h-2l-1-5v-8l2-6z" fill="#98979B"/>
<path transform="translate(753,470)" d="m0 0 3 4-4 3-1 1 9 3v1h-11l-5-5 1-4 3-2z" fill="#98898F"/>
<path transform="translate(1446,1155)" d="m0 0h2l-1 5-5 7 7-3 2-1-1 4-5 5-4-2-1-3-4-1 1-2h3l2-4z" fill="#9B646F"/>
<path transform="translate(1441,1056)" d="m0 0h2l-2 4-20 10-13 5h-5l4-3 18-7 11-6z" fill="#9C4F5C"/>
<path transform="translate(1195,451)" d="m0 0 5 3 5 6v2l3 1 6 9-9-3-6-10-4-6z" fill="#989A9E"/>
<path transform="translate(1130,445)" d="m0 0 3 1v13l-2 5-3-2-1-3v-8z" fill="#98979B"/>
<path transform="translate(905,522)" d="m0 0 3 1 5 10 9 10 2 7-1 4-8-13-4-5-6-12z" fill="#9C4957"/>
<path transform="translate(1282,496)" d="m0 0 4 1 5 3 8 3-6 6h-8l-2-3 2-1 7 1 1-2-7-2-4-3z" fill="#9B626D"/>
<path transform="translate(759,455)" d="m0 0h4v2l-11 6 6 2 5 4v2l-5-2-11-4v-3l10-6z" fill="#9C515E"/>
<path transform="translate(881,520)" d="m0 0h2l1 4-1 7 4 1v2l-4 1-2 3-5-1-2-2 5-1-1-10h2z" fill="#FDFDFD"/>
<path transform="translate(915,445)" d="m0 0 3 3 1 3v8l-2 4-3-1-1-3v-11z" fill="#98979B"/>
<path transform="translate(1116,425)" d="m0 0 6 2 4 5 1 4-8 1 1-7-4 2-4-1 2-5z" fill="#988D92"/>
<path transform="translate(786,409)" d="m0 0h5v3l-5 1-6 3v4l-4 1-7 2 2-4 8-7z" fill="#9C6872"/>
<path transform="translate(843,530)" d="m0 0 4 1-12 4h-16l-7-2 3-2h22z" fill="#DB8685"/>
<path transform="translate(768,411)" d="m0 0h2l1 3-14 14-4 5 1-6 7-9z" fill="#988D93"/>
<path transform="translate(1244,477)" d="m0 0 5 1 4 6 1 4v9l-4-4-4-12z" fill="#FDFDFD"/>
<path transform="translate(1375,735)" d="m0 0 7 2 6 5 3 6v23h-1l-1-18-2-5 1-2h-2l-5-6-6-3z" fill="#DF9594"/>
<path transform="translate(781,655)" d="m0 0 2 4-1 2 3 1 7 20-1 3-3-7-1-3-2 2-1-9h-2l-2-9z" fill="#CEA1A1"/>
<path transform="translate(1197,530)" d="m0 0 8 1h28l-3 2-8 2h-13l-10-3z" fill="#B39193"/>
<path transform="translate(843,393)" d="m0 0 9 1 12 4 1 4-9-1-13-7z" fill="#B5B7B9"/>
<path transform="translate(755,484)" d="m0 0 2 2-5 4 4 3-1 4-4-1-1-4-1 5-3-1-1-5 5-5z" fill="#998087"/>
<path transform="translate(1412,1134)" d="m0 0 5 5 6 3v3l-5-1-2-1 2 7h2v2h-3l-3-4-1-7h-5z" fill="#9D6570"/>
<path transform="translate(799,498)" d="m0 0h2l-1 4-6 8v8l1 3-4-1-1-2v-8l3-6z" fill="#FDFDFD"/>
<path transform="translate(797,395)" d="m0 0 4 1-8 4-9 5-10 6-4 2v-3l13-8z" fill="#9C515E"/>
<path transform="translate(1105,544)" d="m0 0h6l1 3-7 2-1 5 3 5v3h-2l-5-8 1-7z" fill="#FDFDFD"/>
<path transform="translate(856,425)" d="m0 0 6 2 9 6 6 6-1 2-7-4-6-5-8-4z" fill="#9B5A66"/>
<path transform="translate(1476,1106)" d="m0 0 1 4-2-1zm-2 4 3 3 1 4-5 11-2 1 1-18z" fill="#A59A9F"/>
<path transform="translate(1063,366)" d="m0 0 3 1-1 7-3 8-5-1 3-9z" fill="#FDFDFD"/>
<path transform="translate(790,1096)" d="m0 0 6 2 2 2-3 4h-3l-1 2-5-1 1-2-3-2 5-2z" fill="#A1A3A7"/>
<path transform="translate(1402,1068)" d="m0 0h3v2l-5 3-1 2 2 2-12 6-2-1 9-10z" fill="#9C7A82"/>
<path transform="translate(1241,394)" d="m0 0 9 3 15 7-3 1h-11l-4-6-6-4z" fill="#9D8289"/>
<path transform="translate(811,398)" d="m0 0h10l7 3-1 3-4-2h-6l-7 7h-3l2-4 3-3 1-3z" fill="#9B5A66"/>
<path transform="translate(800,394)" d="m0 0 5 1-5 5-5 6-7-1v-3l9-5z" fill="#ABA5A9"/>
<path transform="translate(814,759)" d="m0 0 1 3h2l1 4h2l3 9-1 3h-3l-5-13z" fill="#C99192"/>
<path transform="translate(1085,567)" d="m0 0 4 1 10 5 1 3-4-1v2 2l-4-2-7-8z" fill="#FDFDFD"/>
<path transform="translate(1112,548)" d="m0 0 4 1-4 6 2 1-8 3-3-5 1-4 1 2z" fill="#B7B9BB"/>
<path transform="translate(1226,549)" d="m0 0 8 1 10 5v3l-10-3-9-3z" fill="#9D3C4B"/>
<path transform="translate(1381,867)" d="m0 0h9l8 5 3 5v14h-1l-1-10-2-4-5-6-5-2-6-1z" fill="#D99291"/>
<path transform="translate(1275,522)" d="m0 0h3l-1 3-12 8-5 4h-2l2-4 8-7z" fill="#9D414F"/>
<path transform="translate(768,523)" d="m0 0 6 1 10 8 3 5-5-2-11-8-3-2z" fill="#9D3D4D"/>
<path transform="translate(1174,488)" d="m0 0 5 1 1 6-5 1-7-3-1-3 6-1z" fill="#FDFDFD"/>
<path transform="translate(1247,435)" d="m0 0 5 2 12 12 5 9-1 3-8-12-5-6-6-4z" fill="#9F979B"/>
<path transform="translate(979,580)" d="m0 0 4 1 1 4-3 1-4 9-4-1z" fill="#FDFDFD"/>
<path transform="translate(1291,484)" d="m0 0 7 2 2 2v6l-4 2-4-1h-2l1-4 3-1 4 2-7-6z" fill="#9C515E"/>
<path transform="translate(1283,453)" d="m0 0 5 1 10 6 2 4-5-1-12-7z" fill="#9C4B59"/>
<path transform="translate(860,484)" d="m0 0 9 1 1 4-2 1-4-1-3 2-2 3v-3h-2l1-5h2z" fill="#C2C3C5"/>
<path transform="translate(791,686)" d="m0 0 3 1 3 10v3h-2l-1 2-4-10-1-4h2z" fill="#D08988"/>
<path transform="translate(868,409)" d="m0 0 5 1 1 1v8l-3 3h-7l-2-3 4-1 5 1-1-5-3-4z" fill="#9A717A"/>
<path transform="translate(816,466)" d="m0 0h2l1 6h-12l1-5z" fill="#FDFDFD"/>
<path transform="translate(1467,808)" d="m0 0m-1 1m-1 1m-1 1m-2 1h2l-2 4-16 8h-2l1 4-3-1 1-5 12-5z" fill="#DE9494"/>
<path transform="translate(1008,589)" d="m0 0 4 1 4 6 1 8-3-1-6-12z" fill="#FDFDFD"/>
<path transform="translate(1179,540)" d="m0 0 7 1 5 5 3 4-1 2-4-5-7-3h-9l3-3z" fill="#9E2C3D"/>
<path transform="translate(1198,393)" d="m0 0h5l-2 2-21 7-4-1 12-5z" fill="#9B5662"/>
<path transform="translate(1444,1131)" d="m0 0 4 1 4 3 8 1h5l-3 3-4 3-4-2-10-8z" fill="#9A6B74"/>
<path transform="translate(1114,403)" d="m0 0h2l-1 4-10 8h-4l1-3 11-8z" fill="#FDFDFD"/>
<path transform="translate(829,415)" d="m0 0 1 2h5l-4 2 4 2h-19l1-2 10-3z" fill="#9A737C"/>
<path transform="translate(864,488)" d="m0 0 5 1h3l-1 3-7 3-4-1 1-4z" fill="#FDFDFD"/>
<path transform="translate(835,392)" d="m0 0h8l-2 2 5 5 3 4-1 3-5-5-5-6z" fill="#9A6570"/>
<path transform="translate(1448,1156)" d="m0 0 3 3 3 2-2 1-1 2-6 3h-3l2-4z" fill="#C5C4C6"/>
<path transform="translate(650,1067)" d="m0 0 2 2-3 4h-14l3-3z" fill="#9A6973"/>
<path transform="translate(1071,578)" d="m0 0 4 1 7 9-1 2-4-2-6-7z" fill="#FDFDFD"/>
<path transform="translate(766,504)" d="m0 0 1 3-1 9-9-4 4-4 4-2z" fill="#9D9FA3"/>
<path transform="translate(1178,561)" d="m0 0 9 1 11 7 1 2-7-2-7-4-7-3z" fill="#9F1F32"/>
<path transform="translate(1215,415)" d="m0 0 7 1 1 1 15 1v1h-16l-14-1v-2z" fill="#9D3C4B"/>
<path transform="translate(692,810)" d="m0 0 1 4-6 21-2-4 5-18z" fill="#DD8F8E"/>
<path transform="translate(971,578)" d="m0 0h3l-1 8-2 6-3-1 1-10z" fill="#FDFDFD"/>
<path transform="translate(871,561)" d="m0 0h4v3l-16 2-5 1 4-4z" fill="#9E2436"/>
<path transform="translate(992,585)" d="m0 0 4 2-3 9-2 4h-2l1-10z" fill="#FDFDFD"/>
<path transform="translate(1077,573)" d="m0 0 4 1 7 3 3 5-5-1-9-5z" fill="#FDFDFD"/>
<path transform="translate(1255,409)" d="m0 0h9l5 3 2 5-5-2-5-3h-7l-1-2z" fill="#9B5F6A"/>
<path transform="translate(1048,586)" d="m0 0h3l7 9v3l-4-2-6-7z" fill="#FDFDFD"/>
<path transform="translate(999,587)" d="m0 0 3 1-2 14-4-1 2-12z" fill="#FDFDFD"/>
<path transform="translate(912,482)" d="m0 0v3l-2 3 4 1-1 4-8-7-2-3z" fill="#988C92"/>
<path transform="translate(776,457)" d="m0 0 1 2-4 10-1 4-1 18h-1v-19l3-11z" fill="#989A9E"/>
<path transform="translate(760,1106)" d="m0 0h1l-1 7-5 10-1-2 1-10z" fill="#9A717A"/>
<path transform="translate(1292,543)" d="m0 0h2l-2 4-6 7-7 6h-2l2-4 10-9z" fill="#9B606B"/>
<path transform="translate(1171,497)" d="m0 0 1 3-2 7h14l-1 2h-16l3-10z" fill="#B8B2B5"/>
<path transform="translate(941,378)" d="m0 0 2 1-11 10-8 7-3 2 2-4 8-8z" fill="#989A9E"/>
<path transform="translate(1440,1052)" d="m0 0h4v2l-8 4-8 1v-2z" fill="#9B5F6A"/>
<path transform="translate(1039,589)" d="m0 0h3l6 12-2 1-5-5z" fill="#FDFDFD"/>
<path transform="translate(1223,403)" d="m0 0 6 1 4 5-2 1-4-3-9 1z" fill="#9B5C68"/>
<path transform="translate(1165,420)" d="m0 0 6 1 5 4v3h-3v-2l-6-2-3-3z" fill="#9C4C59"/>
<path transform="translate(954,567)" d="m0 0 3 1-6 12-2-1 3-9z" fill="#FDFDFD"/>
<path transform="translate(843,530)" d="m0 0 4 1-12 4h-7l-2-2z" fill="#B19294"/>
<path transform="translate(861,542)" d="m0 0h10l4 4-7-2-7 1-8 6 2-4z" fill="#9F1F32"/>
<path transform="translate(1137,527)" d="m0 0h2l-2 6-11 11-2 3 1-5 8-8z" fill="#9B5461"/>
<path transform="translate(1187,425)" d="m0 0h2l-1 3-12 6h-2v-2l10-6z" fill="#9B5763"/>
<path transform="translate(802,403)" d="m0 0 4 1v7l-7-2 1-4h2z" fill="#9B898F"/>
<path transform="translate(1450,1163)" d="m0 0 1 3-6 6-4-2v-3l8-3z" fill="#9B5662"/>
<path transform="translate(793,1091)" d="m0 0 2 1 1 3 11 1v1l-5 1v1h-6l-4-2z" fill="#98898F"/>
<path transform="translate(890,979)" d="m0 0 3 3 5 12 1 6-2-1-7-18z" fill="#FDFDFD"/>
<path transform="translate(921,441)" d="m0 0h5l1 4-4 1v2l2 1-3 1-2-5z" fill="#988D92"/>
<path transform="translate(845,418)" d="m0 0 4 2 7 4 1 3-5-1-5-2z" fill="#9C4C59"/>
<path transform="translate(890,975)" d="m0 0h2l5 13-1 3-5-11-2 1-1-5z" fill="#C88B8B"/>
<path transform="translate(1173,569)" d="m0 0 17 6 1 2-7-1-12-5z" fill="#997F86"/>
<path transform="translate(1289,463)" d="m0 0h5v4l-7 2-3 1 1-4z" fill="#9A6E78"/>
<path transform="translate(810,418)" d="m0 0 12 3v1l-13 2-2-2h3z" fill="#9B8F94"/>
<path transform="translate(1212,509)" d="m0 0h9l3 2-2 1h-10l-6 2v-3z" fill="#DAA6A6"/>
<path transform="translate(847,477)" d="m0 0 4 1-2 4-6 2v-2h-3v-2z" fill="#9D9FA3"/>
<path transform="translate(884,420)" d="m0 0 4 2-1 6-4 2-2-4 4-2-2-2z" fill="#988F95"/>
<path transform="translate(1232,408)" d="m0 0 9 2-3 2-2 1h-9l1-2h2l1-2z" fill="#998289"/>
<path transform="translate(697,793)" d="m0 0 1 4-4 13h-2l1-7z" fill="#DB8685"/>
<path transform="translate(764,503)" d="m0 0h2l-1 4-7 4-4-1v-2l8-3z" fill="#9D3B4A"/>
<path transform="translate(819,471)" d="m0 0 11 1v2l-10 1-5-1z" fill="#9A6F78"/>
<path transform="translate(1487,703)" d="m0 0 3 3 1 8-4-1-2-5 1-3v2h2z" fill="#BE9293"/>
<path transform="translate(1276,559)" d="m0 0v3l-12 8-3-1 9-6z" fill="#9A6E77"/>
<path transform="translate(1241,402)" d="m0 0 5 1 2 4-5 3h-2l1-3z" fill="#997981"/>
<path transform="translate(1417,1068)" d="m0 0 4 2-13 5h-5l4-3z" fill="#9C4B59"/>
<path transform="translate(1388,747)" d="m0 0 3 1v23h-1l-1-18-2-5z" fill="#BE8E8F"/>
<path transform="translate(814,551)" d="m0 0h7l-1 2-13 4-4 1 3-3z" fill="#9F1F32"/>
<path transform="translate(1177,485)" d="m0 0 4 1 2 1v6l-4 1-1-7z" fill="#C8CACC"/>
<path transform="translate(1233,402)" d="m0 0 4 1 4 4v3l-5-2-3-3z" fill="#9C4B59"/>
<path transform="translate(1206,391)" d="m0 0h8l-9 6-2-1v-3l-3-1z" fill="#9E989D"/>
<path transform="translate(1412,1134)" d="m0 0 8 8-10-1-2-1 3-3z" fill="#9B646E"/>
<path transform="translate(786,673)" d="m0 0 2 2 3 9 2 2h-2v2h-2l-2-5z" fill="#EFCCCC"/>
<path transform="translate(908,494)" d="m0 0 5 3 4 6-1 2-5-6-6-1z" fill="#989A9E"/>
<path transform="translate(1227,490)" d="m0 0 4 1 1 5-2 2-4-5-3-2z" fill="#A2969A"/>
<path transform="translate(1024,365)" d="m0 0h1v8l-7-2 2-1 1-4z" fill="#B7B8BB"/>
<path transform="translate(1514,1081)" d="m0 0 1 2-2 9h-2v2h-2l1-6z" fill="#9A6670"/>
<path transform="translate(873,492)" d="m0 0 5 1-1 5h-4l-1-4z" fill="#FDFDFD"/>
<path transform="translate(909,467)" d="m0 0 4 2 1 5-6-2-4 2z" fill="#9A6E77"/>
<path transform="translate(880,420)" d="m0 0 5 1-2 1v2l-8 2 1-4z" fill="#9C525F"/>
<path transform="translate(1220,391)" d="m0 0 16 1 3 2h-15l-5 1z" fill="#997A82"/>
<path transform="translate(1434,1140)" d="m0 0h2l-2 4-7 6h-2l2-4h2v-2z" fill="#9B606B"/>
<path transform="translate(1211,551)" d="m0 0h10l2 1-1 3-7-1-4-2z" fill="#FDFDFD"/>
<path transform="translate(714,744)" d="m0 0 5 1-1 2-4 1-3 6h-2l1-5z" fill="#DF9695"/>
<path transform="translate(791,686)" d="m0 0 3 1 1 7h-4l-2-6h2z" fill="#C99899"/>
<path transform="translate(781,655)" d="m0 0 2 4-1 2 3 1v5l-3 1-2-9z" fill="#D68383"/>
<path transform="translate(1246,542)" d="m0 0h5l-3 5-4 2v-5z" fill="#9B5A66"/>
<path transform="translate(1202,490)" d="m0 0 4 2-1 14h-1v-13l-4 3v-3z" fill="#A18A8F"/>
<path transform="translate(1293,490)" d="m0 0 3 2h4l-2 4-8-1 1-4z" fill="#9A737C"/>
<path transform="translate(779,404)" d="m0 0 3 1-10 8h-2v-3z" fill="#9B5E69"/>
<path transform="translate(866,398)" d="m0 0 6 2 3 3-3 1-7-3z" fill="#98898F"/>
<path transform="translate(1413,1095)" d="m0 0 2 1-2 4-4 4h-2l1-4 3-1z" fill="#9A6973"/>
<path transform="translate(814,759)" d="m0 0 1 3h2l1 4 2 1h-2v3h-2l-2-5z" fill="#E4A8A7"/>
<path transform="translate(1212,559)" d="m0 0 7 3 5 1v2h-7l-5-4z" fill="#9F1F32"/>
<path transform="translate(786,409)" d="m0 0h5v3l-5 1-4 1-1-3z" fill="#9A727B"/>
<path transform="translate(843,393)" d="m0 0 9 1 4 2-3 2-5-1z" fill="#989A9E"/>
<path transform="translate(1398,1076)" d="m0 0 3 1-12 6-2-1 3-3z" fill="#9B5562"/>
<path transform="translate(1447,1049)" d="m0 0h2l-2 5-3 3-2-1v-2h2l-1-3z" fill="#A79BA0"/>
<path transform="translate(905,508)" d="m0 0 4 1 4 2v-3l3 1-3 5-6-3z" fill="#997E86"/>
<path transform="translate(1284,505)" d="m0 0 8 1 1 3h-8l-2-3z" fill="#9D3546"/>
<path transform="translate(1120,441)" d="m0 0h5l1 3-2 2-6-2z" fill="#9A717A"/>
<path transform="translate(831,418)" d="m0 0h7l5 2v1h-8l-6-1z" fill="#9F1F32"/>
<path transform="translate(1185,397)" d="m0 0 5 1-4 2-6 2-4-1z" fill="#9A6772"/>
<path transform="translate(1423,1059)" d="m0 0 4 1-12 5h-2v-2z" fill="#9C4957"/>
<path transform="translate(869,495)" d="m0 0h1l2 10-3 1-2-10z" fill="#CBBCBD"/>
<path transform="translate(1137,494)" d="m0 0 4 3v2l-7-1v3l-3-1 5-5z" fill="#988B91"/>
<path transform="translate(1134,482)" d="m0 0 8 1-2 4h-3l-4-4z" fill="#998289"/>
<path transform="translate(761,454)" d="m0 0h3l1 6-6 1-2-2 3-2h3v-2z" fill="#A09CA1"/>
<path transform="translate(1114,426)" d="m0 0 4 1-1 4-4 1-1-2z" fill="#9C4957"/>
<path transform="translate(1177,407)" d="m0 0 2 1v3l-4 3h-3l2-5z" fill="#997D85"/>
</svg>
